# xmcd
#
# Track frame offsets:
#	150
#	15993
#	30259
#	48442
#	68369
#	86673
#	102050
#	118073
#	133200
#	149196
#
# Disc length: 2240 seconds
#
# Revision: 1
# Processed by: cddbd v1.4PL0 Copyright (c) Steve Scherf et al.
# Submitted via: EasyCDDAExtractor 5.0.7
#
DISCID=8008be0a
DTITLE=Kelly Jones - Brave Heartache
DYEAR=2003
DGENRE=Country
TTITLE0=Malibu Boy
TTITLE1=Waiting
TTITLE2=Frozen Moon
TTITLE3=Sun's Gone Down
TTITLE4=Brave Heartache
TTITLE5=Downhill Fast
TTITLE6=Rocketship
TTITLE7=Nothing More
TTITLE8=Stay
TTITLE9=Westward On
EXTD=
EXTT0=
EXTT1=
EXTT2=
EXTT3=
EXTT4=
EXTT5=
EXTT6=
EXTT7=
EXTT8=
EXTT9=
PLAYORDER=
